M48
;GenerationSoftware,Autodesk,EAGLE,9.7.0*%
;CreationDate,2022-07-23T04:24:06Z*%
FMAT,2
ICI,OFF
METRIC,TZ,000.000
T6C0.350
T5C0.650
T4C1.346
T3C1.397
T2C1.702
T1C3.000
%
G90
M71
T1
X25500Y7000
X152500Y7000
X25500Y83000
X152500Y83000
X89000Y7000
X89000Y83000
T2
X123800Y84000
X115880Y84000
X119840Y84000
X131720Y84000
X18840Y6000
X104000Y84000
X107960Y84000
X111920Y84000
X135680Y84000
X127760Y84000
X139640Y84000
X10920Y6000
X3000Y6000
T3
X56973Y6556
X81103Y6556
X97463Y6576
X121593Y6576
T4
X177420Y17064
X177420Y45004
X177420Y73020
X96064Y17064
X96064Y73020
X86420Y17064
X86420Y45004
X86420Y73020
X5064Y17064
X5064Y73020
T5
X36271Y10236
T6
X163525Y84201
X174650Y86792
M30