G04 EAGLE Gerber RS-274X export*
G75*
%MOMM*%
%FSLAX34Y34*%
%LPD*%
%INBottom Copper*%
%IPPOS*%
%AMOC8*
5,1,8,0,0,1.08239X$1,22.5*%
G01*
G04 Define Apertures*
%ADD10C,2.019300*%
%ADD11C,2.095500*%
%ADD12C,2.552700*%
%ADD13C,1.270000*%
%ADD14C,0.304800*%
%ADD15C,0.812800*%
%ADD16C,0.604000*%
%ADD17C,0.975000*%
G36*
X1824951Y3971D02*
X1824158Y3810D01*
X5842Y3810D01*
X5110Y3947D01*
X4428Y4382D01*
X3971Y5049D01*
X3810Y5842D01*
X3810Y894158D01*
X3947Y894891D01*
X4382Y895572D01*
X5049Y896029D01*
X5842Y896190D01*
X1824158Y896190D01*
X1824891Y896053D01*
X1825572Y895618D01*
X1826029Y894951D01*
X1826190Y894158D01*
X1826190Y5842D01*
X1826053Y5110D01*
X1825618Y4428D01*
X1824951Y3971D01*
G37*
%LPC*%
G36*
X1189510Y880762D02*
X1197638Y880762D01*
X1197638Y888890D01*
X1196632Y888890D01*
X1193364Y887537D01*
X1190863Y885036D01*
X1189510Y881768D01*
X1189510Y880762D01*
G37*
G36*
X1149910Y880762D02*
X1158038Y880762D01*
X1158038Y888890D01*
X1157032Y888890D01*
X1153764Y887537D01*
X1151263Y885036D01*
X1149910Y881768D01*
X1149910Y880762D01*
G37*
G36*
X1347910Y880762D02*
X1356038Y880762D01*
X1356038Y888890D01*
X1355032Y888890D01*
X1351764Y887537D01*
X1349263Y885036D01*
X1347910Y881768D01*
X1347910Y880762D01*
G37*
G36*
X1357562Y880762D02*
X1365690Y880762D01*
X1365690Y881768D01*
X1364337Y885036D01*
X1361836Y887537D01*
X1358568Y888890D01*
X1357562Y888890D01*
X1357562Y880762D01*
G37*
G36*
X1159562Y880762D02*
X1167690Y880762D01*
X1167690Y881768D01*
X1166337Y885036D01*
X1163836Y887537D01*
X1160568Y888890D01*
X1159562Y888890D01*
X1159562Y880762D01*
G37*
G36*
X1199162Y880762D02*
X1207290Y880762D01*
X1207290Y881768D01*
X1205937Y885036D01*
X1203436Y887537D01*
X1200168Y888890D01*
X1199162Y888890D01*
X1199162Y880762D01*
G37*
G36*
X1393558Y825713D02*
X1399242Y825713D01*
X1404493Y827888D01*
X1408512Y831907D01*
X1410688Y837158D01*
X1410688Y842842D01*
X1408512Y848093D01*
X1404493Y852112D01*
X1400702Y853683D01*
X1400066Y854100D01*
X1399609Y854767D01*
X1399448Y855560D01*
X1399448Y871382D01*
X1399591Y872130D01*
X1400032Y872807D01*
X1400702Y873259D01*
X1400860Y873325D01*
X1403075Y875540D01*
X1404274Y878434D01*
X1404274Y881566D01*
X1403075Y884460D01*
X1400860Y886675D01*
X1397966Y887874D01*
X1394834Y887874D01*
X1391940Y886675D01*
X1389725Y884460D01*
X1388526Y881566D01*
X1388526Y878434D01*
X1389725Y875540D01*
X1391940Y873325D01*
X1392098Y873259D01*
X1392734Y872842D01*
X1393191Y872175D01*
X1393352Y871382D01*
X1393352Y855560D01*
X1393209Y854812D01*
X1392768Y854135D01*
X1392098Y853683D01*
X1388307Y852112D01*
X1384288Y848093D01*
X1382113Y842842D01*
X1382113Y837158D01*
X1384288Y831907D01*
X1388307Y827888D01*
X1393558Y825713D01*
G37*
G36*
X1314358Y825713D02*
X1320042Y825713D01*
X1325293Y827888D01*
X1329312Y831907D01*
X1331488Y837158D01*
X1331488Y842842D01*
X1329312Y848093D01*
X1325293Y852112D01*
X1321502Y853683D01*
X1320866Y854100D01*
X1320409Y854767D01*
X1320248Y855560D01*
X1320248Y871382D01*
X1320391Y872130D01*
X1320832Y872807D01*
X1321502Y873259D01*
X1321660Y873325D01*
X1323875Y875540D01*
X1325074Y878434D01*
X1325074Y881566D01*
X1323875Y884460D01*
X1321660Y886675D01*
X1318766Y887874D01*
X1315634Y887874D01*
X1312740Y886675D01*
X1310525Y884460D01*
X1309326Y881566D01*
X1309326Y878434D01*
X1310525Y875540D01*
X1312740Y873325D01*
X1312898Y873259D01*
X1313534Y872842D01*
X1313991Y872175D01*
X1314152Y871382D01*
X1314152Y855560D01*
X1314009Y854812D01*
X1313568Y854135D01*
X1312898Y853683D01*
X1309107Y852112D01*
X1305088Y848093D01*
X1302913Y842842D01*
X1302913Y837158D01*
X1305088Y831907D01*
X1309107Y827888D01*
X1314358Y825713D01*
G37*
G36*
X1037158Y825713D02*
X1042842Y825713D01*
X1048093Y827888D01*
X1052112Y831907D01*
X1054288Y837158D01*
X1054288Y842842D01*
X1052112Y848093D01*
X1048093Y852112D01*
X1044302Y853683D01*
X1043666Y854100D01*
X1043209Y854767D01*
X1043048Y855560D01*
X1043048Y871382D01*
X1043191Y872130D01*
X1043632Y872807D01*
X1044302Y873259D01*
X1044460Y873325D01*
X1046675Y875540D01*
X1047874Y878434D01*
X1047874Y881566D01*
X1046675Y884460D01*
X1044460Y886675D01*
X1041566Y887874D01*
X1038434Y887874D01*
X1035540Y886675D01*
X1033325Y884460D01*
X1032126Y881566D01*
X1032126Y878434D01*
X1033325Y875540D01*
X1035540Y873325D01*
X1035698Y873259D01*
X1036334Y872842D01*
X1036791Y872175D01*
X1036952Y871382D01*
X1036952Y855560D01*
X1036809Y854812D01*
X1036368Y854135D01*
X1035698Y853683D01*
X1031907Y852112D01*
X1027888Y848093D01*
X1025713Y842842D01*
X1025713Y837158D01*
X1027888Y831907D01*
X1031907Y827888D01*
X1037158Y825713D01*
G37*
G36*
X1771891Y718582D02*
X1776513Y718582D01*
X1780784Y720351D01*
X1784053Y723620D01*
X1785823Y727891D01*
X1785823Y732513D01*
X1784053Y736784D01*
X1780784Y740053D01*
X1776513Y741823D01*
X1771891Y741823D01*
X1767620Y740053D01*
X1764167Y736601D01*
X1764041Y736408D01*
X1763374Y735951D01*
X1762581Y735790D01*
X1359606Y735790D01*
X1358844Y735939D01*
X1358169Y736385D01*
X1271882Y822672D01*
X1271481Y823243D01*
X1271289Y824028D01*
X1271418Y824826D01*
X1271849Y825511D01*
X1272512Y825974D01*
X1273303Y826141D01*
X1274097Y825986D01*
X1274758Y825713D01*
X1280442Y825713D01*
X1285693Y827888D01*
X1289712Y831907D01*
X1291888Y837158D01*
X1291888Y842842D01*
X1289712Y848093D01*
X1285693Y852112D01*
X1281902Y853683D01*
X1281266Y854100D01*
X1280809Y854767D01*
X1280648Y855560D01*
X1280648Y871382D01*
X1280791Y872130D01*
X1281232Y872807D01*
X1281902Y873259D01*
X1282060Y873325D01*
X1284275Y875540D01*
X1285474Y878434D01*
X1285474Y881566D01*
X1284275Y884460D01*
X1282060Y886675D01*
X1279166Y887874D01*
X1276034Y887874D01*
X1273140Y886675D01*
X1270925Y884460D01*
X1269726Y881566D01*
X1269726Y878434D01*
X1270925Y875540D01*
X1273140Y873325D01*
X1273298Y873259D01*
X1273934Y872842D01*
X1274391Y872175D01*
X1274552Y871382D01*
X1274552Y855560D01*
X1274409Y854812D01*
X1273968Y854135D01*
X1273298Y853683D01*
X1269507Y852112D01*
X1265488Y848093D01*
X1263313Y842842D01*
X1263313Y837158D01*
X1265488Y831907D01*
X1266689Y830705D01*
X1267097Y830120D01*
X1267283Y829333D01*
X1267148Y828536D01*
X1266712Y827855D01*
X1266045Y827397D01*
X1265252Y827237D01*
X1250348Y827237D01*
X1249646Y827362D01*
X1248957Y827787D01*
X1248490Y828446D01*
X1248316Y829236D01*
X1248464Y830031D01*
X1248911Y830705D01*
X1250112Y831907D01*
X1252288Y837158D01*
X1252288Y842842D01*
X1250112Y848093D01*
X1246093Y852112D01*
X1242302Y853683D01*
X1241666Y854100D01*
X1241209Y854767D01*
X1241048Y855560D01*
X1241048Y871382D01*
X1241191Y872130D01*
X1241632Y872807D01*
X1242302Y873259D01*
X1242460Y873325D01*
X1244675Y875540D01*
X1245874Y878434D01*
X1245874Y881566D01*
X1244675Y884460D01*
X1242460Y886675D01*
X1239566Y887874D01*
X1236434Y887874D01*
X1233540Y886675D01*
X1231325Y884460D01*
X1230126Y881566D01*
X1230126Y878434D01*
X1231325Y875540D01*
X1233540Y873325D01*
X1233698Y873259D01*
X1234334Y872842D01*
X1234791Y872175D01*
X1234952Y871382D01*
X1234952Y855560D01*
X1234809Y854812D01*
X1234368Y854135D01*
X1233698Y853683D01*
X1229907Y852112D01*
X1225711Y847916D01*
X1225111Y847501D01*
X1224322Y847322D01*
X1223526Y847464D01*
X1222848Y847905D01*
X1222397Y848575D01*
X1221489Y850767D01*
X1209167Y863089D01*
X1207113Y863940D01*
X1150087Y863940D01*
X1148033Y863089D01*
X1133612Y848667D01*
X1132997Y848246D01*
X1132207Y848073D01*
X1131412Y848221D01*
X1130738Y848667D01*
X1127293Y852112D01*
X1123502Y853683D01*
X1122866Y854100D01*
X1122409Y854767D01*
X1122248Y855560D01*
X1122248Y871382D01*
X1122391Y872130D01*
X1122832Y872807D01*
X1123502Y873259D01*
X1123660Y873325D01*
X1125875Y875540D01*
X1127074Y878434D01*
X1127074Y881566D01*
X1125875Y884460D01*
X1123660Y886675D01*
X1120766Y887874D01*
X1117634Y887874D01*
X1114740Y886675D01*
X1112525Y884460D01*
X1111326Y881566D01*
X1111326Y878434D01*
X1112525Y875540D01*
X1114740Y873325D01*
X1114898Y873259D01*
X1115534Y872842D01*
X1115991Y872175D01*
X1116152Y871382D01*
X1116152Y855560D01*
X1116009Y854812D01*
X1115568Y854135D01*
X1114898Y853683D01*
X1111107Y852112D01*
X1107088Y848093D01*
X1104913Y842842D01*
X1104913Y841143D01*
X1104787Y840441D01*
X1104362Y839753D01*
X1103703Y839285D01*
X1102913Y839111D01*
X1102118Y839259D01*
X1101444Y839706D01*
X1096412Y844737D01*
X1094359Y845588D01*
X1094108Y845588D01*
X1093360Y845731D01*
X1092682Y846172D01*
X1092230Y846842D01*
X1091712Y848093D01*
X1087693Y852112D01*
X1083902Y853683D01*
X1083266Y854100D01*
X1082809Y854767D01*
X1082648Y855560D01*
X1082648Y871382D01*
X1082791Y872130D01*
X1083232Y872807D01*
X1083902Y873259D01*
X1084060Y873325D01*
X1086275Y875540D01*
X1087474Y878434D01*
X1087474Y881566D01*
X1086275Y884460D01*
X1084060Y886675D01*
X1081166Y887874D01*
X1078034Y887874D01*
X1075140Y886675D01*
X1072925Y884460D01*
X1071726Y881566D01*
X1071726Y878434D01*
X1072925Y875540D01*
X1075140Y873325D01*
X1075298Y873259D01*
X1075934Y872842D01*
X1076391Y872175D01*
X1076552Y871382D01*
X1076552Y855560D01*
X1076409Y854812D01*
X1075968Y854135D01*
X1075298Y853683D01*
X1071507Y852112D01*
X1067488Y848093D01*
X1065313Y842842D01*
X1065313Y837158D01*
X1067488Y831907D01*
X1071507Y827888D01*
X1076758Y825713D01*
X1082442Y825713D01*
X1087693Y827888D01*
X1091138Y831333D01*
X1091753Y831754D01*
X1092543Y831927D01*
X1093338Y831779D01*
X1094012Y831333D01*
X1108433Y816911D01*
X1110487Y816061D01*
X1127913Y816061D01*
X1129967Y816911D01*
X1142289Y829233D01*
X1142776Y830409D01*
X1143171Y831021D01*
X1143831Y831489D01*
X1144621Y831663D01*
X1145416Y831514D01*
X1146090Y831068D01*
X1150131Y827026D01*
X1155756Y824697D01*
X1158038Y824697D01*
X1158038Y840762D01*
X1174104Y840762D01*
X1174104Y843044D01*
X1171774Y848669D01*
X1171148Y849295D01*
X1170740Y849880D01*
X1170554Y850667D01*
X1170689Y851464D01*
X1171125Y852145D01*
X1171792Y852603D01*
X1172585Y852764D01*
X1184615Y852764D01*
X1185318Y852638D01*
X1186006Y852213D01*
X1186474Y851554D01*
X1186647Y850764D01*
X1186499Y849969D01*
X1186052Y849295D01*
X1185426Y848669D01*
X1183097Y843044D01*
X1183097Y840762D01*
X1199162Y840762D01*
X1199162Y824697D01*
X1201444Y824697D01*
X1207069Y827026D01*
X1210657Y830614D01*
X1211271Y831036D01*
X1212061Y831209D01*
X1212856Y831061D01*
X1213530Y830614D01*
X1213872Y830272D01*
X1227233Y816911D01*
X1229287Y816061D01*
X1261847Y816061D01*
X1262610Y815912D01*
X1263284Y815465D01*
X1353285Y725465D01*
X1355338Y724614D01*
X1762581Y724614D01*
X1763328Y724472D01*
X1764006Y724030D01*
X1764144Y723827D01*
X1767620Y720351D01*
X1771891Y718582D01*
G37*
G36*
X1157032Y871110D02*
X1158038Y871110D01*
X1158038Y879238D01*
X1149910Y879238D01*
X1149910Y878232D01*
X1151263Y874964D01*
X1153764Y872463D01*
X1157032Y871110D01*
G37*
G36*
X1159562Y871110D02*
X1160568Y871110D01*
X1163836Y872463D01*
X1166337Y874964D01*
X1167690Y878232D01*
X1167690Y879238D01*
X1159562Y879238D01*
X1159562Y871110D01*
G37*
G36*
X1196632Y871110D02*
X1197638Y871110D01*
X1197638Y879238D01*
X1189510Y879238D01*
X1189510Y878232D01*
X1190863Y874964D01*
X1193364Y872463D01*
X1196632Y871110D01*
G37*
G36*
X1357562Y871110D02*
X1358568Y871110D01*
X1361836Y872463D01*
X1364337Y874964D01*
X1365690Y878232D01*
X1365690Y879238D01*
X1357562Y879238D01*
X1357562Y871110D01*
G37*
G36*
X1355032Y871110D02*
X1356038Y871110D01*
X1356038Y879238D01*
X1347910Y879238D01*
X1347910Y878232D01*
X1349263Y874964D01*
X1351764Y872463D01*
X1355032Y871110D01*
G37*
G36*
X1199162Y871110D02*
X1200168Y871110D01*
X1203436Y872463D01*
X1205937Y874964D01*
X1207290Y878232D01*
X1207290Y879238D01*
X1199162Y879238D01*
X1199162Y871110D01*
G37*
G36*
X243433Y790605D02*
X255000Y788942D01*
X266567Y790605D01*
X277198Y795460D01*
X286029Y803113D01*
X292348Y812944D01*
X295640Y824157D01*
X295640Y835843D01*
X292348Y847056D01*
X286029Y856887D01*
X277198Y864540D01*
X266567Y869395D01*
X255000Y871058D01*
X243433Y869395D01*
X232802Y864540D01*
X223971Y856887D01*
X217652Y847056D01*
X214360Y835843D01*
X214360Y824157D01*
X217652Y812944D01*
X223971Y803113D01*
X232802Y795460D01*
X243433Y790605D01*
G37*
G36*
X878433Y790605D02*
X890000Y788942D01*
X901567Y790605D01*
X912198Y795460D01*
X921029Y803113D01*
X927348Y812944D01*
X930640Y824157D01*
X930640Y835843D01*
X927348Y847056D01*
X921029Y856887D01*
X912198Y864540D01*
X901567Y869395D01*
X890000Y871058D01*
X878433Y869395D01*
X867802Y864540D01*
X858971Y856887D01*
X852652Y847056D01*
X849360Y835843D01*
X849360Y824157D01*
X852652Y812944D01*
X858971Y803113D01*
X867802Y795460D01*
X878433Y790605D01*
G37*
G36*
X1513433Y790605D02*
X1525000Y788942D01*
X1536567Y790605D01*
X1547198Y795460D01*
X1556029Y803113D01*
X1562348Y812944D01*
X1565640Y824157D01*
X1565640Y835843D01*
X1562348Y847056D01*
X1556029Y856887D01*
X1547198Y864540D01*
X1536567Y869395D01*
X1525000Y871058D01*
X1513433Y869395D01*
X1502802Y864540D01*
X1493971Y856887D01*
X1487652Y847056D01*
X1484360Y835843D01*
X1484360Y824157D01*
X1487652Y812944D01*
X1493971Y803113D01*
X1502802Y795460D01*
X1513433Y790605D01*
G37*
G36*
X1341497Y840762D02*
X1356038Y840762D01*
X1356038Y855304D01*
X1353756Y855304D01*
X1348131Y852974D01*
X1343826Y848669D01*
X1341497Y843044D01*
X1341497Y840762D01*
G37*
G36*
X1357562Y840762D02*
X1372104Y840762D01*
X1372104Y843044D01*
X1369774Y848669D01*
X1365469Y852974D01*
X1359844Y855304D01*
X1357562Y855304D01*
X1357562Y840762D01*
G37*
G36*
X1357562Y824697D02*
X1359844Y824697D01*
X1365469Y827026D01*
X1369774Y831331D01*
X1372104Y836956D01*
X1372104Y839238D01*
X1357562Y839238D01*
X1357562Y824697D01*
G37*
G36*
X1353756Y824697D02*
X1356038Y824697D01*
X1356038Y839238D01*
X1341497Y839238D01*
X1341497Y836956D01*
X1343826Y831331D01*
X1348131Y827026D01*
X1353756Y824697D01*
G37*
G36*
X1195356Y824697D02*
X1197638Y824697D01*
X1197638Y839238D01*
X1183097Y839238D01*
X1183097Y836956D01*
X1185426Y831331D01*
X1189731Y827026D01*
X1195356Y824697D01*
G37*
G36*
X1159562Y824697D02*
X1161844Y824697D01*
X1167469Y827026D01*
X1171774Y831331D01*
X1174104Y836956D01*
X1174104Y839238D01*
X1159562Y839238D01*
X1159562Y824697D01*
G37*
G36*
X958329Y718582D02*
X962951Y718582D01*
X967222Y720351D01*
X970491Y723620D01*
X972261Y727891D01*
X972261Y732513D01*
X970491Y736784D01*
X967222Y740053D01*
X962951Y741823D01*
X958329Y741823D01*
X954058Y740053D01*
X950789Y736784D01*
X949020Y732513D01*
X949020Y727891D01*
X950789Y723620D01*
X954058Y720351D01*
X958329Y718582D01*
G37*
G36*
X861891Y718582D02*
X866513Y718582D01*
X870784Y720351D01*
X874053Y723620D01*
X875823Y727891D01*
X875823Y732513D01*
X874053Y736784D01*
X870784Y740053D01*
X866513Y741823D01*
X861891Y741823D01*
X857620Y740053D01*
X854351Y736784D01*
X852582Y732513D01*
X852582Y727891D01*
X854351Y723620D01*
X857620Y720351D01*
X861891Y718582D01*
G37*
G36*
X48329Y718582D02*
X52951Y718582D01*
X57222Y720351D01*
X60491Y723620D01*
X62261Y727891D01*
X62261Y732513D01*
X60491Y736784D01*
X57222Y740053D01*
X52951Y741823D01*
X48329Y741823D01*
X44058Y740053D01*
X40789Y736784D01*
X39020Y732513D01*
X39020Y727891D01*
X40789Y723620D01*
X44058Y720351D01*
X48329Y718582D01*
G37*
G36*
X851566Y450802D02*
X863440Y450802D01*
X863440Y462677D01*
X861688Y462677D01*
X857044Y460753D01*
X853489Y457198D01*
X851566Y452554D01*
X851566Y450802D01*
G37*
G36*
X864964Y450802D02*
X876839Y450802D01*
X876839Y452554D01*
X874915Y457198D01*
X871360Y460753D01*
X866716Y462677D01*
X864964Y462677D01*
X864964Y450802D01*
G37*
G36*
X1771891Y438420D02*
X1776513Y438420D01*
X1780784Y440189D01*
X1784053Y443458D01*
X1785823Y447729D01*
X1785823Y452351D01*
X1784053Y456622D01*
X1780784Y459891D01*
X1776513Y461661D01*
X1771891Y461661D01*
X1767620Y459891D01*
X1764351Y456622D01*
X1762582Y452351D01*
X1762582Y447729D01*
X1764351Y443458D01*
X1767620Y440189D01*
X1771891Y438420D01*
G37*
G36*
X864964Y437404D02*
X866716Y437404D01*
X871360Y439327D01*
X874915Y442882D01*
X876839Y447526D01*
X876839Y449278D01*
X864964Y449278D01*
X864964Y437404D01*
G37*
G36*
X861688Y437404D02*
X863440Y437404D01*
X863440Y449278D01*
X851566Y449278D01*
X851566Y447526D01*
X853489Y442882D01*
X857044Y439327D01*
X861688Y437404D01*
G37*
G36*
X107418Y12126D02*
X110550Y12126D01*
X113444Y13325D01*
X115659Y15540D01*
X116858Y18434D01*
X116858Y21566D01*
X115659Y24460D01*
X113403Y26716D01*
X112866Y27069D01*
X112409Y27736D01*
X112248Y28529D01*
X112248Y44440D01*
X112391Y45188D01*
X112832Y45865D01*
X113502Y46317D01*
X117293Y47888D01*
X121312Y51907D01*
X123488Y57158D01*
X123488Y62842D01*
X121312Y68093D01*
X117293Y72112D01*
X116538Y72425D01*
X115902Y72843D01*
X115444Y73510D01*
X115283Y74303D01*
X115283Y113204D01*
X114433Y115258D01*
X68107Y161583D01*
X67699Y162168D01*
X67513Y162955D01*
X67649Y163753D01*
X68085Y164434D01*
X68752Y164891D01*
X69544Y165052D01*
X763826Y165052D01*
X765879Y165903D01*
X822647Y222671D01*
X823292Y223105D01*
X824084Y223266D01*
X899270Y223266D01*
X900032Y223117D01*
X900707Y222671D01*
X948471Y174906D01*
X948899Y174276D01*
X949066Y173485D01*
X949020Y173244D01*
X949020Y168329D01*
X950789Y164058D01*
X954058Y160789D01*
X958329Y159020D01*
X962951Y159020D01*
X967222Y160789D01*
X970491Y164058D01*
X972261Y168329D01*
X972261Y172951D01*
X970491Y177222D01*
X967222Y180491D01*
X962951Y182261D01*
X958069Y182261D01*
X957843Y182214D01*
X957048Y182362D01*
X956374Y182809D01*
X905591Y233591D01*
X903538Y234442D01*
X819816Y234442D01*
X817763Y233591D01*
X760995Y176823D01*
X760350Y176389D01*
X759558Y176228D01*
X62261Y176228D01*
X61514Y176371D01*
X60836Y176812D01*
X60699Y177015D01*
X57222Y180491D01*
X52951Y182261D01*
X48329Y182261D01*
X44058Y180491D01*
X40789Y177222D01*
X39020Y172951D01*
X39020Y168329D01*
X40789Y164058D01*
X44058Y160789D01*
X48329Y159020D01*
X52951Y159020D01*
X53051Y159061D01*
X53796Y159215D01*
X54591Y159067D01*
X55265Y158620D01*
X103512Y110373D01*
X103946Y109729D01*
X104107Y108936D01*
X104107Y74713D01*
X103965Y73965D01*
X103524Y73288D01*
X102853Y72836D01*
X101107Y72112D01*
X97088Y68093D01*
X94913Y62842D01*
X94913Y57158D01*
X97088Y51907D01*
X101107Y47888D01*
X104898Y46317D01*
X105534Y45900D01*
X105991Y45233D01*
X106152Y44440D01*
X106152Y28707D01*
X106009Y27960D01*
X105568Y27282D01*
X104898Y26830D01*
X104524Y26675D01*
X102309Y24460D01*
X101110Y21566D01*
X101110Y18434D01*
X102309Y15540D01*
X104524Y13325D01*
X107418Y12126D01*
G37*
G36*
X861891Y159020D02*
X866513Y159020D01*
X870784Y160789D01*
X874053Y164058D01*
X875823Y168329D01*
X875823Y172951D01*
X874053Y177222D01*
X870784Y180491D01*
X866513Y182261D01*
X861891Y182261D01*
X857620Y180491D01*
X854351Y177222D01*
X852582Y172951D01*
X852582Y168329D01*
X854351Y164058D01*
X857620Y160789D01*
X861891Y159020D01*
G37*
G36*
X1771891Y159020D02*
X1776513Y159020D01*
X1780784Y160789D01*
X1784053Y164058D01*
X1785823Y168329D01*
X1785823Y172951D01*
X1784053Y177222D01*
X1780784Y180491D01*
X1776513Y182261D01*
X1771891Y182261D01*
X1767620Y180491D01*
X1764351Y177222D01*
X1762582Y172951D01*
X1762582Y168329D01*
X1764351Y164058D01*
X1767620Y160789D01*
X1771891Y159020D01*
G37*
G36*
X243433Y30605D02*
X255000Y28942D01*
X266567Y30605D01*
X277198Y35460D01*
X286029Y43113D01*
X292348Y52944D01*
X295640Y64157D01*
X295640Y75843D01*
X292348Y87056D01*
X286029Y96887D01*
X277198Y104540D01*
X266567Y109395D01*
X255000Y111058D01*
X243433Y109395D01*
X232802Y104540D01*
X223971Y96887D01*
X217652Y87056D01*
X214360Y75843D01*
X214360Y64157D01*
X217652Y52944D01*
X223971Y43113D01*
X232802Y35460D01*
X243433Y30605D01*
G37*
G36*
X878433Y30605D02*
X890000Y28942D01*
X901567Y30605D01*
X912198Y35460D01*
X921029Y43113D01*
X927348Y52944D01*
X930640Y64157D01*
X930640Y75843D01*
X927348Y87056D01*
X921029Y96887D01*
X912198Y104540D01*
X901567Y109395D01*
X890000Y111058D01*
X878433Y109395D01*
X867802Y104540D01*
X858971Y96887D01*
X852652Y87056D01*
X849360Y75843D01*
X849360Y64157D01*
X852652Y52944D01*
X858971Y43113D01*
X867802Y35460D01*
X878433Y30605D01*
G37*
G36*
X1513433Y30605D02*
X1525000Y28942D01*
X1536567Y30605D01*
X1547198Y35460D01*
X1556029Y43113D01*
X1562348Y52944D01*
X1565640Y64157D01*
X1565640Y75843D01*
X1562348Y87056D01*
X1556029Y96887D01*
X1547198Y104540D01*
X1536567Y109395D01*
X1525000Y111058D01*
X1513433Y109395D01*
X1502802Y104540D01*
X1493971Y96887D01*
X1487652Y87056D01*
X1484360Y75843D01*
X1484360Y64157D01*
X1487652Y52944D01*
X1493971Y43113D01*
X1502802Y35460D01*
X1513433Y30605D01*
G37*
G36*
X1213539Y53757D02*
X1218313Y53757D01*
X1222724Y55584D01*
X1226100Y58960D01*
X1227928Y63371D01*
X1227928Y68145D01*
X1226100Y72556D01*
X1222724Y75932D01*
X1218313Y77760D01*
X1213539Y77760D01*
X1209128Y75932D01*
X1205752Y72556D01*
X1203925Y68145D01*
X1203925Y63371D01*
X1205752Y58960D01*
X1209128Y55584D01*
X1213539Y53757D01*
G37*
G36*
X972239Y53757D02*
X977013Y53757D01*
X981424Y55584D01*
X984800Y58960D01*
X986628Y63371D01*
X986628Y68145D01*
X984800Y72556D01*
X981424Y75932D01*
X977013Y77760D01*
X972239Y77760D01*
X967828Y75932D01*
X964452Y72556D01*
X962625Y68145D01*
X962625Y63371D01*
X964452Y58960D01*
X967828Y55584D01*
X972239Y53757D01*
G37*
G36*
X808641Y53555D02*
X813415Y53555D01*
X817826Y55382D01*
X821202Y58758D01*
X823030Y63169D01*
X823030Y67943D01*
X821202Y72354D01*
X817826Y75730D01*
X813415Y77558D01*
X808641Y77558D01*
X804230Y75730D01*
X800854Y72354D01*
X799027Y67943D01*
X799027Y63169D01*
X800854Y58758D01*
X804230Y55382D01*
X808641Y53555D01*
G37*
G36*
X567341Y53555D02*
X572115Y53555D01*
X576526Y55382D01*
X579902Y58758D01*
X581730Y63169D01*
X581730Y67943D01*
X579902Y72354D01*
X576526Y75730D01*
X572115Y77558D01*
X567341Y77558D01*
X562930Y75730D01*
X559554Y72354D01*
X557727Y67943D01*
X557727Y63169D01*
X559554Y58758D01*
X562930Y55382D01*
X567341Y53555D01*
G37*
G36*
X187164Y11872D02*
X190296Y11872D01*
X193190Y13071D01*
X195405Y15286D01*
X196604Y18180D01*
X196604Y21312D01*
X195405Y24206D01*
X193190Y26421D01*
X192702Y26623D01*
X192066Y27041D01*
X191609Y27708D01*
X191448Y28501D01*
X191448Y44440D01*
X191591Y45188D01*
X192032Y45865D01*
X192702Y46317D01*
X196493Y47888D01*
X200512Y51907D01*
X202688Y57158D01*
X202688Y62842D01*
X200512Y68093D01*
X196493Y72112D01*
X191242Y74288D01*
X185558Y74288D01*
X180307Y72112D01*
X176288Y68093D01*
X174113Y62842D01*
X174113Y57158D01*
X176288Y51907D01*
X180307Y47888D01*
X184098Y46317D01*
X184734Y45900D01*
X185191Y45233D01*
X185352Y44440D01*
X185352Y29982D01*
X185285Y29600D01*
X185337Y28303D01*
X185196Y27474D01*
X184755Y26797D01*
X184417Y26569D01*
X182055Y24206D01*
X180856Y21312D01*
X180856Y18180D01*
X182055Y15286D01*
X184270Y13071D01*
X187164Y11872D01*
G37*
G36*
X28434Y12126D02*
X31566Y12126D01*
X34460Y13325D01*
X36675Y15540D01*
X37874Y18434D01*
X37874Y21566D01*
X36675Y24460D01*
X34460Y26675D01*
X34302Y26741D01*
X33666Y27158D01*
X33209Y27825D01*
X33048Y28618D01*
X33048Y44440D01*
X33191Y45188D01*
X33632Y45865D01*
X34302Y46317D01*
X38093Y47888D01*
X42112Y51907D01*
X44288Y57158D01*
X44288Y62842D01*
X42112Y68093D01*
X38093Y72112D01*
X32842Y74288D01*
X27158Y74288D01*
X21907Y72112D01*
X17888Y68093D01*
X15713Y62842D01*
X15713Y57158D01*
X17888Y51907D01*
X21907Y47888D01*
X25698Y46317D01*
X26334Y45900D01*
X26791Y45233D01*
X26952Y44440D01*
X26952Y28618D01*
X26809Y27870D01*
X26368Y27193D01*
X25698Y26741D01*
X25540Y26675D01*
X23325Y24460D01*
X22126Y21566D01*
X22126Y18434D01*
X23325Y15540D01*
X25540Y13325D01*
X28434Y12126D01*
G37*
%LPD*%
D10*
X50640Y730202D03*
X50640Y170640D03*
X864202Y730202D03*
X864202Y450040D03*
X864202Y170640D03*
X960640Y730202D03*
X960640Y170640D03*
X1774202Y730202D03*
X1774202Y450040D03*
X1774202Y170640D03*
D11*
X569728Y65556D03*
X811028Y65556D03*
X974626Y65758D03*
X1215926Y65758D03*
D12*
X30000Y60000D03*
X109200Y60000D03*
X1396400Y840000D03*
X1277600Y840000D03*
X1356800Y840000D03*
X1119200Y840000D03*
X1079600Y840000D03*
X1040000Y840000D03*
X188400Y60000D03*
X1317200Y840000D03*
D13*
X30000Y20000D03*
X108984Y20000D03*
X188730Y19746D03*
X1356800Y880000D03*
X1277600Y880000D03*
X1396400Y880000D03*
X1317200Y880000D03*
X1079600Y880000D03*
X1119200Y880000D03*
X1040000Y880000D03*
D12*
X1198400Y840000D03*
X1158800Y840000D03*
X1238000Y840000D03*
D13*
X1198400Y880000D03*
X1158800Y880000D03*
X1238000Y880000D03*
D14*
X30000Y60000D02*
X30000Y20000D01*
D15*
X109695Y112093D02*
X51148Y170640D01*
X50640Y170640D01*
X762714Y170640D01*
X820928Y228854D01*
X902426Y228854D01*
X960640Y170640D01*
D14*
X109200Y60000D02*
X109200Y20004D01*
X108984Y20000D01*
D15*
X109695Y60495D02*
X109695Y112093D01*
X109695Y60495D02*
X109200Y60000D01*
D16*
X1746504Y867918D03*
X1635252Y842010D03*
D15*
X340106Y114554D02*
X339090Y115570D01*
D17*
X362712Y102362D03*
D14*
X1119200Y840000D02*
X1119200Y880000D01*
X1040000Y880000D02*
X1040000Y840000D01*
X188400Y27996D02*
X188730Y19746D01*
X188400Y27996D02*
X188400Y60000D01*
X1317200Y840000D02*
X1317200Y880000D01*
X1396400Y880000D02*
X1396400Y840000D01*
X1238000Y840000D02*
X1238000Y880000D01*
X1277600Y880000D02*
X1277600Y840000D01*
X1079600Y840000D02*
X1079600Y880000D01*
D15*
X1356450Y730202D02*
X1774202Y730202D01*
X1216752Y847602D02*
X1206002Y858352D01*
X1137552Y832399D02*
X1126802Y821649D01*
X1111599Y821649D01*
X1265004Y821649D02*
X1356450Y730202D01*
X1093247Y840000D02*
X1079600Y840000D01*
X1230399Y821649D02*
X1265004Y821649D01*
X1111599Y821649D02*
X1093247Y840000D01*
X1216752Y835296D02*
X1230399Y821649D01*
X1216752Y835296D02*
X1216752Y847602D01*
X1151199Y858352D02*
X1137552Y844705D01*
X1137552Y832399D01*
X1151199Y858352D02*
X1206002Y858352D01*
M02*
