G04 EAGLE Gerber RS-274X export*
G75*
%MOMM*%
%FSLAX34Y34*%
%LPD*%
%INTop Copper*%
%IPPOS*%
%AMOC8*
5,1,8,0,0,1.08239X$1,22.5*%
G01*
G04 Define Apertures*
%ADD10C,2.019300*%
%ADD11R,1.000000X1.400000*%
%ADD12C,2.095500*%
%ADD13C,2.552700*%
%ADD14C,0.812800*%
%ADD15R,0.812800X1.676400*%
%ADD16C,0.254000*%
%ADD17R,1.270000X0.635000*%
%ADD18R,1.600000X1.800000*%
%ADD19C,0.304800*%
%ADD20C,0.604000*%
%ADD21C,0.975000*%
D10*
X50640Y730202D03*
X50640Y170640D03*
X864202Y730202D03*
X864202Y450040D03*
X864202Y170640D03*
X960640Y730202D03*
X960640Y170640D03*
X1774202Y730202D03*
X1774202Y450040D03*
X1774202Y170640D03*
D11*
X1658250Y863650D03*
X1667750Y841650D03*
X1648750Y841650D03*
D12*
X569728Y65556D03*
X811028Y65556D03*
X974626Y65758D03*
X1215926Y65758D03*
D13*
X30000Y60000D03*
X109200Y60000D03*
X1396400Y840000D03*
X1277600Y840000D03*
X1356800Y840000D03*
X1119200Y840000D03*
X1079600Y840000D03*
X1040000Y840000D03*
X188400Y60000D03*
D14*
X327596Y102116D02*
X334200Y102116D01*
D15*
X322770Y102370D03*
X339026Y102370D03*
D13*
X1317200Y840000D03*
D16*
X1746868Y806876D02*
X1746868Y796716D01*
D17*
X1746868Y806876D03*
X1746868Y796716D03*
D18*
X1644420Y797756D03*
X1672420Y797756D03*
D13*
X1198400Y840000D03*
X1158800Y840000D03*
X1238000Y840000D03*
D17*
X1746758Y853440D03*
X1746758Y845312D03*
D14*
X620806Y14478D02*
X569728Y65556D01*
X620806Y14478D02*
X921880Y14478D01*
X974626Y65758D01*
X445292Y189992D02*
X184172Y189992D01*
X445292Y189992D02*
X569728Y65556D01*
X30000Y60000D02*
X30000Y76792D01*
X75828Y122620D01*
X116800Y122620D01*
X184172Y189992D01*
D19*
X1746758Y853440D02*
X1746758Y867664D01*
X1746504Y867918D01*
D20*
X1746504Y867918D03*
D19*
X1648750Y841650D02*
X1635612Y841650D01*
X1635252Y842010D01*
D20*
X1635252Y842010D03*
D21*
X362712Y102362D03*
D14*
X343860Y102362D01*
X343852Y102370D01*
D19*
X339026Y102370D01*
D14*
X1515618Y450040D02*
X1774202Y450040D01*
X1509960Y450040D02*
X1509776Y450040D01*
X1509960Y450040D02*
X1515618Y450040D01*
X1509776Y450040D02*
X1119816Y840000D01*
X1119200Y840000D01*
X1699360Y170640D02*
X1774202Y170640D01*
X1699360Y170640D02*
X1040000Y840000D01*
X307284Y126492D02*
X224536Y126492D01*
X188214Y90170D01*
X188214Y60186D01*
X188400Y60000D01*
X307284Y126492D02*
X322803Y110973D01*
D19*
X322770Y110940D02*
X322770Y102370D01*
X322770Y110940D02*
X322803Y110973D01*
X1355786Y878586D02*
X1645534Y878586D01*
X1658250Y865870D02*
X1658250Y863650D01*
X1658250Y865870D02*
X1645534Y878586D01*
X1355786Y878586D02*
X1317200Y840000D01*
X1455858Y780542D02*
X1627206Y780542D01*
X1644420Y797756D01*
X1667750Y821086D02*
X1667750Y841650D01*
X1667750Y821086D02*
X1644420Y797756D01*
X1667750Y841650D02*
X1743096Y841650D01*
X1746758Y845312D01*
X1455858Y780542D02*
X1396400Y840000D01*
X1346456Y771144D02*
X1721296Y771144D01*
X1746868Y796716D01*
D14*
X1238000Y840000D02*
X1238000Y840236D01*
D19*
X1277600Y840000D02*
X1346456Y771144D01*
D14*
X1238000Y840236D02*
X1198198Y880038D01*
X1238000Y840000D02*
X1277600Y840000D01*
X864202Y730202D02*
X836296Y758108D01*
X836296Y853517D01*
X862817Y880038D02*
X1198198Y880038D01*
X862817Y880038D02*
X836296Y853517D01*
D19*
X1681540Y806876D02*
X1746868Y806876D01*
X1681540Y806876D02*
X1672420Y797756D01*
D14*
X811028Y65556D02*
X146382Y730202D01*
X50640Y730202D01*
X960640Y730202D02*
X960640Y322161D01*
X1215926Y65758D01*
M02*
