G04 EAGLE Gerber RS-274X export*
G75*
%MOMM*%
%FSLAX34Y34*%
%LPD*%
%INSoldermask Top*%
%IPPOS*%
%AMOC8*
5,1,8,0,0,1.08239X$1,22.5*%
G01*
G04 Define Apertures*
%ADD10C,2.146300*%
%ADD11R,1.127000X1.527000*%
%ADD12C,2.222500*%
%ADD13C,3.127000*%
%ADD14C,2.679700*%
%ADD15R,0.939800X1.803400*%
%ADD16R,1.397000X0.762000*%
%ADD17R,1.727000X1.927000*%
%ADD18C,0.731000*%
%ADD19C,1.102000*%
G36*
X335216Y106307D02*
X335216Y97925D01*
X326326Y97925D01*
X326326Y106307D01*
X335216Y106307D01*
G37*
G36*
X1748773Y799256D02*
X1744963Y799256D01*
X1744963Y804336D01*
X1748773Y804336D01*
X1748773Y799256D01*
G37*
D10*
X50640Y730202D03*
X50640Y170640D03*
X864202Y730202D03*
X864202Y450040D03*
X864202Y170640D03*
X960640Y730202D03*
X960640Y170640D03*
X1774202Y730202D03*
X1774202Y450040D03*
X1774202Y170640D03*
D11*
X1658250Y863650D03*
X1667750Y841650D03*
X1648750Y841650D03*
D12*
X569728Y65556D03*
X811028Y65556D03*
X974626Y65758D03*
X1215926Y65758D03*
D13*
X255000Y70000D03*
X1525000Y70000D03*
X255000Y830000D03*
X1525000Y830000D03*
D14*
X30000Y60000D03*
X109200Y60000D03*
X1396400Y840000D03*
X1277600Y840000D03*
X1356800Y840000D03*
X1119200Y840000D03*
X1079600Y840000D03*
X1040000Y840000D03*
X188400Y60000D03*
D15*
X322770Y102370D03*
X339026Y102370D03*
D14*
X1317200Y840000D03*
D16*
X1746868Y806876D03*
X1746868Y796716D03*
D17*
X1644420Y797756D03*
X1672420Y797756D03*
D14*
X1198400Y840000D03*
X1158800Y840000D03*
X1238000Y840000D03*
D13*
X890000Y70000D03*
X890000Y830000D03*
D16*
X1746758Y853440D03*
X1746758Y845312D03*
D18*
X1746504Y867918D03*
X1635252Y842010D03*
D19*
X362712Y102362D03*
M02*
