G04 EAGLE Gerber RS-274X export*
G75*
%MOMM*%
%FSLAX34Y34*%
%LPD*%
%INSoldermask Bottom*%
%IPPOS*%
%AMOC8*
5,1,8,0,0,1.08239X$1,22.5*%
G01*
G04 Define Apertures*
%ADD10C,2.146300*%
%ADD11C,2.222500*%
%ADD12C,3.127000*%
%ADD13C,2.679700*%
%ADD14C,1.397000*%
%ADD15C,0.731000*%
%ADD16C,1.102000*%
D10*
X50640Y730202D03*
X50640Y170640D03*
X864202Y730202D03*
X864202Y450040D03*
X864202Y170640D03*
X960640Y730202D03*
X960640Y170640D03*
X1774202Y730202D03*
X1774202Y450040D03*
X1774202Y170640D03*
D11*
X569728Y65556D03*
X811028Y65556D03*
X974626Y65758D03*
X1215926Y65758D03*
D12*
X255000Y70000D03*
X1525000Y70000D03*
X255000Y830000D03*
X1525000Y830000D03*
D13*
X30000Y60000D03*
X109200Y60000D03*
X1396400Y840000D03*
X1277600Y840000D03*
X1356800Y840000D03*
X1119200Y840000D03*
X1079600Y840000D03*
X1040000Y840000D03*
X188400Y60000D03*
X1317200Y840000D03*
D14*
X30000Y20000D03*
X108984Y20000D03*
X188730Y19746D03*
X1356800Y880000D03*
X1277600Y880000D03*
X1396400Y880000D03*
X1317200Y880000D03*
X1079600Y880000D03*
X1119200Y880000D03*
X1040000Y880000D03*
D13*
X1198400Y840000D03*
X1158800Y840000D03*
X1238000Y840000D03*
D14*
X1198400Y880000D03*
X1158800Y880000D03*
X1238000Y880000D03*
D12*
X890000Y70000D03*
X890000Y830000D03*
D15*
X1746504Y867918D03*
X1635252Y842010D03*
D16*
X362712Y102362D03*
M02*
